<svg width="21" height="29" viewBox="0 0 21 29" fill="none" xmlns="http://www.w3.org/2000/svg">
<path fill-rule="evenodd" clip-rule="evenodd" d="M10.5 1.75C5.94365 1.75 2.25 5.44365 2.25 10C2.25 14.5563 5.94365 18.25 10.5 18.25C15.0563 18.25 18.75 14.5563 18.75 10C18.75 5.44365 15.0563 1.75 10.5 1.75ZM0.75 10C0.75 4.61522 5.11522 0.25 10.5 0.25C15.8848 0.25 20.25 4.61522 20.25 10C20.25 15.3848 15.8848 19.75 10.5 19.75C5.11522 19.75 0.75 15.3848 0.75 10Z" fill="#F9C764"/>
<path fill-rule="evenodd" clip-rule="evenodd" d="M14.8957 20.2658C15.3013 20.1817 15.6983 20.4422 15.7824 20.8478L17.2344 27.8478C17.2927 28.1287 17.1856 28.4182 16.9586 28.5936C16.7316 28.769 16.4245 28.7996 16.1674 28.6723L10.5 25.8675L4.8327 28.6723C4.57556 28.7996 4.26836 28.769 4.04136 28.5936C3.81436 28.4181 3.70735 28.1285 3.7657 27.8476L5.2177 20.8575C5.30194 20.452 5.699 20.1915 6.10456 20.2757C6.51012 20.36 6.77059 20.757 6.68635 21.1626L5.54755 26.6449L10.1674 24.3585C10.377 24.2548 10.6231 24.2548 10.8327 24.3585L15.453 26.6451L14.3137 21.1525C14.2295 20.7469 14.4901 20.3499 14.8957 20.2658Z" fill="#F9C764"/>
</svg>
