<svg width="103" height="72" viewBox="0 0 103 72" fill="none" xmlns="http://www.w3.org/2000/svg">
<path d="M96.9539 18.3906C98.3303 20.1594 99.4956 22.0811 100.426 24.1171L74.0318 43.4564L63.001 36.5833V28.3146L74.0318 35.1877L96.9539 18.3906Z" fill="#21A038"/>
<path d="M51.7429 35.9981C51.7429 35.627 51.752 35.2585 51.7702 34.892L45.0852 34.5664C45.0625 35.0413 45.0488 35.5209 45.0488 36.0048C45.046 39.7859 45.7942 43.5303 47.2507 47.0232C48.7071 50.5162 50.843 53.689 53.5359 56.3595L58.2778 51.6485C56.2049 49.5965 54.5604 47.1573 53.4389 44.4715C52.3175 41.7857 51.7411 38.906 51.7429 35.9981Z" fill="url(#paint0_linear_1256_9555)"/>
<path d="M74.0248 13.8523C74.3979 13.8523 74.7687 13.8659 75.1373 13.884L75.4718 7.23707C74.9926 7.21445 74.5101 7.20315 74.0248 7.20315C70.2189 7.19853 66.4498 7.94119 62.9336 9.38848C59.4174 10.8358 56.2234 12.9592 53.5352 15.6368L58.277 20.35C60.3416 18.289 62.7958 16.6538 65.4984 15.5387C68.2009 14.4236 71.0985 13.8505 74.0248 13.8523Z" fill="url(#paint1_linear_1256_9555)"/>
<path d="M74.0255 58.1477C73.6524 58.1477 73.2814 58.1477 72.9107 58.1183L72.5762 64.7629C73.057 64.7871 73.5402 64.7992 74.0255 64.7992C77.8298 64.8031 81.5971 64.06 85.1115 62.6123C88.6258 61.1646 91.8176 59.0409 94.5039 56.3633L89.7711 51.6523C87.7061 53.7123 85.2522 55.3465 82.5502 56.4612C79.8481 57.5759 76.9511 58.1491 74.0255 58.1477Z" fill="url(#paint2_linear_1256_9555)"/>
<path d="M86.5858 17.7159L92.2196 13.5884C87.0702 9.44384 80.6425 7.18771 74.0166 7.19926V13.8507C78.5034 13.8452 82.886 15.1929 86.5858 17.7159Z" fill="url(#paint3_linear_1256_9555)"/>
<path d="M103 35.997C103.004 34.2667 102.851 32.5393 102.545 30.8359L96.3081 35.4044C96.3081 35.6013 96.3081 35.798 96.3081 35.997C96.3098 39.0915 95.6571 42.1519 94.3927 44.9797C93.1281 47.8075 91.2798 50.3396 88.9678 52.4119L93.4662 57.3537C96.4721 54.6564 98.8741 51.3615 100.516 47.6824C102.159 44.0032 103.005 40.022 103 35.997Z" fill="#21A038"/>
<path d="M74.0253 58.1457C70.9117 58.1467 67.8326 57.4978 64.9873 56.241C62.1421 54.9842 59.5941 53.1473 57.5084 50.8496L52.5391 55.3186C55.2523 58.3068 58.5672 60.6947 62.2687 62.3276C65.9702 63.9604 69.9756 64.8018 74.0253 64.797V58.1457Z" fill="url(#paint4_linear_1256_9555)"/>
<path d="M59.0833 19.5862L54.5872 14.6445C51.5804 17.3412 49.1775 20.636 47.5343 24.3152C45.8912 27.9943 45.0443 31.9757 45.0488 36.0011H51.743C51.7416 32.9067 52.3943 29.8463 53.6588 27.0186C54.9233 24.1909 56.7713 21.6587 59.0833 19.5862Z" fill="url(#paint5_linear_1256_9555)"/>
<path fill-rule="evenodd" clip-rule="evenodd" d="M32.9756 68C32.9756 68 59.0216 60.8249 61.9511 17.8879C61.9511 17.8879 48.71 17.3089 32.9756 4C17.2389 17.309 4 17.8879 4 17.8879C6.93008 60.824 32.9756 68 32.9756 68Z" fill="#465587"/>
<path fill-rule="evenodd" clip-rule="evenodd" d="M32.9759 0.0703125L34.9132 1.70897C42.4728 8.10329 49.3829 11.3988 54.3365 13.0963C56.8162 13.946 58.8111 14.3971 60.1575 14.6345C60.8306 14.7532 61.3414 14.8184 61.6693 14.8533C61.8332 14.8708 61.9513 14.8807 62.021 14.8858C62.0559 14.8884 62.0786 14.8898 62.089 14.8905L62.0911 14.8906L62.0941 14.8907L62.0951 14.8908L65.1536 15.0245L64.9444 18.0916C63.436 40.1995 55.9363 53.4102 48.5286 61.1229C44.8468 64.9563 41.2407 67.3759 38.5169 68.8471C37.1554 69.5824 36.0135 70.0813 35.1909 70.4022C34.7795 70.5627 34.4474 70.6789 34.207 70.758C34.0868 70.7975 33.9895 70.8279 33.9166 70.8499C33.8802 70.8608 33.8498 70.8698 33.8257 70.8767L33.7943 70.8857L33.7822 70.889L33.7771 70.8905C33.7747 70.8911 33.7725 70.8917 32.9758 67.9995C32.1789 70.8917 32.1767 70.8911 32.1744 70.8904L32.1692 70.889L32.1571 70.8856L32.1257 70.8767C32.1108 70.8724 32.0936 70.8674 32.074 70.8615C32.0618 70.8579 32.0488 70.854 32.0348 70.8498C31.9619 70.8278 31.8646 70.7975 31.7444 70.7579C31.504 70.6788 31.172 70.5626 30.7605 70.4021C29.9379 70.0812 28.7961 69.5823 27.4346 68.8469C24.7109 67.3757 21.1049 64.956 17.4231 61.1225C10.0155 53.4098 2.51584 40.1991 1.00716 18.0916L0.797852 15.0245L3.85932 14.8906C3.86021 14.8906 3.86128 14.8905 3.86253 14.8905C3.87286 14.8898 3.89561 14.8884 3.93046 14.8858C4.00017 14.8807 4.11825 14.8708 4.28212 14.8533C4.6099 14.8184 5.12061 14.7532 5.79369 14.6345C7.13989 14.3971 9.13458 13.9461 11.6142 13.0963C16.5675 11.3988 23.4776 8.1033 31.0385 1.70884L32.9759 0.0703125ZM32.9758 67.9995L32.1789 70.8917L32.9757 71.1112L33.7725 70.8917L32.9758 67.9995ZM32.9758 64.8259C32.9872 64.8214 32.9987 64.817 33.0104 64.8124C33.6236 64.5732 34.5395 64.1761 35.6656 63.5679C37.9169 62.3519 41.0054 60.2941 44.2013 56.9667C50.26 50.6585 56.902 39.5802 58.7301 20.4732C57.1328 20.1733 54.9747 19.6575 52.3914 18.7723C47.236 17.0056 40.4052 13.7737 32.9756 7.87766C25.5452 13.7737 18.7145 17.0056 13.5593 18.7723C10.9764 19.6574 8.81859 20.1733 7.22147 20.4731C9.04978 39.5797 15.6918 50.6581 21.7505 56.9664C24.9463 60.2939 28.0348 62.3518 30.2861 63.5678C31.4122 64.176 32.3281 64.5732 32.9412 64.8124C32.9529 64.817 32.9644 64.8215 32.9758 64.8259Z" fill="#465587"/>
<defs>
<linearGradient id="paint0_linear_1256_9555" x1="54.8898" y1="55.5295" x2="47.6554" y2="34.4896" gradientUnits="userSpaceOnUse">
<stop offset="0.14" stop-color="#F1E813"/>
<stop offset="0.3" stop-color="#E6E418"/>
<stop offset="0.58" stop-color="#C9DA26"/>
<stop offset="0.89" stop-color="#A2CC39"/>
</linearGradient>
<linearGradient id="paint1_linear_1256_9555" x1="55.4464" y1="16.8128" x2="74.255" y2="9.60165" gradientUnits="userSpaceOnUse">
<stop offset="0.06" stop-color="#0FA7DF"/>
<stop offset="0.54" stop-color="#0098F8"/>
<stop offset="0.92" stop-color="#0290EA"/>
</linearGradient>
<linearGradient id="paint2_linear_1256_9555" x1="72.1348" y1="60.7847" x2="93.424" y2="55.9461" gradientUnits="userSpaceOnUse">
<stop offset="0.12" stop-color="#A2CC39"/>
<stop offset="0.28" stop-color="#86C239"/>
<stop offset="0.87" stop-color="#219F38"/>
</linearGradient>
<linearGradient id="paint3_linear_1256_9555" x1="72.6242" y1="9.42697" x2="90.8168" y2="15.0752" gradientUnits="userSpaceOnUse">
<stop offset="0.06" stop-color="#0290EA"/>
<stop offset="0.79" stop-color="#0C89CA"/>
</linearGradient>
<linearGradient id="paint4_linear_1256_9555" x1="54.2183" y1="54.5089" x2="74.0117" y2="61.9513" gradientUnits="userSpaceOnUse">
<stop offset="0.13" stop-color="#F1E813"/>
<stop offset="0.3" stop-color="#EAE616"/>
<stop offset="0.53" stop-color="#D8DF1F"/>
<stop offset="0.8" stop-color="#BAD52D"/>
<stop offset="0.98" stop-color="#A2CC39"/>
</linearGradient>
<linearGradient id="paint5_linear_1256_9555" x1="47.5426" y1="36.8062" x2="55.4161" y2="16.2003" gradientUnits="userSpaceOnUse">
<stop offset="0.07" stop-color="#A2CC39"/>
<stop offset="0.26" stop-color="#81C45E"/>
<stop offset="0.92" stop-color="#0FA7DF"/>
</linearGradient>
</defs>
</svg>
